<mxfile host="app.diagrams.net" modified="2023-07-20T21:18:56.430Z" agent="Mozilla/5.0 (Macintosh; Intel Mac OS X 10_15_7) AppleWebKit/537.36 (KHTML, like Gecko) Chrome/114.0.0.0 Safari/537.36" etag="y-sFgwTpBrYkUjR1ItXE" version="21.6.5" type="github">
  <diagram id="C5RBs43oDa-KdzZeNtuy" name="Page-1">
    <mxGraphModel dx="1244" dy="691" grid="1" gridSize="10" guides="1" tooltips="1" connect="1" arrows="1" fold="1" page="1" pageScale="1" pageWidth="827" pageHeight="1169" math="0" shadow="0">
      <root>
        <mxCell id="WIyWlLk6GJQsqaUBKTNV-0" />
        <mxCell id="WIyWlLk6GJQsqaUBKTNV-1" parent="WIyWlLk6GJQsqaUBKTNV-0" />
        <mxCell id="K2qaakySadR7CfbKdTyK-4" value="" style="edgeStyle=orthogonalEdgeStyle;rounded=0;orthogonalLoop=1;jettySize=auto;html=1;" edge="1" parent="WIyWlLk6GJQsqaUBKTNV-1" source="K2qaakySadR7CfbKdTyK-0" target="K2qaakySadR7CfbKdTyK-3">
          <mxGeometry relative="1" as="geometry" />
        </mxCell>
        <mxCell id="K2qaakySadR7CfbKdTyK-6" style="edgeStyle=orthogonalEdgeStyle;rounded=0;orthogonalLoop=1;jettySize=auto;html=1;exitX=0.5;exitY=1;exitDx=0;exitDy=0;entryX=0.488;entryY=-0.135;entryDx=0;entryDy=0;entryPerimeter=0;" edge="1" parent="WIyWlLk6GJQsqaUBKTNV-1" source="K2qaakySadR7CfbKdTyK-0" target="K2qaakySadR7CfbKdTyK-2">
          <mxGeometry relative="1" as="geometry">
            <mxPoint x="100" y="150" as="targetPoint" />
          </mxGeometry>
        </mxCell>
        <mxCell id="K2qaakySadR7CfbKdTyK-0" value="AgcUploader" style="rounded=1;whiteSpace=wrap;html=1;fontSize=12;glass=0;strokeWidth=1;shadow=0;" vertex="1" parent="WIyWlLk6GJQsqaUBKTNV-1">
          <mxGeometry x="130" y="40" width="120" height="40" as="geometry" />
        </mxCell>
        <mxCell id="K2qaakySadR7CfbKdTyK-11" value="" style="edgeStyle=orthogonalEdgeStyle;rounded=0;orthogonalLoop=1;jettySize=auto;html=1;" edge="1" parent="WIyWlLk6GJQsqaUBKTNV-1" source="K2qaakySadR7CfbKdTyK-2" target="K2qaakySadR7CfbKdTyK-10">
          <mxGeometry relative="1" as="geometry" />
        </mxCell>
        <mxCell id="K2qaakySadR7CfbKdTyK-13" value="FileList" style="edgeLabel;html=1;align=center;verticalAlign=middle;resizable=0;points=[];" vertex="1" connectable="0" parent="K2qaakySadR7CfbKdTyK-11">
          <mxGeometry x="0.0032" relative="1" as="geometry">
            <mxPoint as="offset" />
          </mxGeometry>
        </mxCell>
        <mxCell id="K2qaakySadR7CfbKdTyK-2" value="handleFileChange" style="whiteSpace=wrap;html=1;rounded=1;" vertex="1" parent="WIyWlLk6GJQsqaUBKTNV-1">
          <mxGeometry x="40" y="160" width="120" height="40" as="geometry" />
        </mxCell>
        <mxCell id="K2qaakySadR7CfbKdTyK-12" value="" style="edgeStyle=orthogonalEdgeStyle;rounded=0;orthogonalLoop=1;jettySize=auto;html=1;" edge="1" parent="WIyWlLk6GJQsqaUBKTNV-1" source="K2qaakySadR7CfbKdTyK-3" target="K2qaakySadR7CfbKdTyK-10">
          <mxGeometry relative="1" as="geometry" />
        </mxCell>
        <mxCell id="K2qaakySadR7CfbKdTyK-14" value="FileList" style="edgeLabel;html=1;align=center;verticalAlign=middle;resizable=0;points=[];" vertex="1" connectable="0" parent="K2qaakySadR7CfbKdTyK-12">
          <mxGeometry x="-0.021" relative="1" as="geometry">
            <mxPoint as="offset" />
          </mxGeometry>
        </mxCell>
        <mxCell id="K2qaakySadR7CfbKdTyK-3" value="handleDrop" style="whiteSpace=wrap;html=1;rounded=1;" vertex="1" parent="WIyWlLk6GJQsqaUBKTNV-1">
          <mxGeometry x="220" y="160" width="120" height="40" as="geometry" />
        </mxCell>
        <mxCell id="K2qaakySadR7CfbKdTyK-17" value="" style="edgeStyle=orthogonalEdgeStyle;rounded=0;orthogonalLoop=1;jettySize=auto;html=1;" edge="1" parent="WIyWlLk6GJQsqaUBKTNV-1" source="K2qaakySadR7CfbKdTyK-10" target="K2qaakySadR7CfbKdTyK-16">
          <mxGeometry relative="1" as="geometry" />
        </mxCell>
        <object label="beforeUploadCheck" 描述="添加响应式对象 fileObj（ready） 到 fileList 数组" id="K2qaakySadR7CfbKdTyK-10">
          <mxCell style="whiteSpace=wrap;html=1;rounded=1;imageWidth=24;" vertex="1" parent="WIyWlLk6GJQsqaUBKTNV-1">
            <mxGeometry x="130" y="280" width="120" height="40" as="geometry" />
          </mxCell>
        </object>
        <mxCell id="K2qaakySadR7CfbKdTyK-25" value="" style="edgeStyle=orthogonalEdgeStyle;rounded=0;orthogonalLoop=1;jettySize=auto;html=1;" edge="1" parent="WIyWlLk6GJQsqaUBKTNV-1" source="K2qaakySadR7CfbKdTyK-16" target="K2qaakySadR7CfbKdTyK-24">
          <mxGeometry relative="1" as="geometry" />
        </mxCell>
        <mxCell id="K2qaakySadR7CfbKdTyK-16" value="addFileList" style="whiteSpace=wrap;html=1;rounded=1;" vertex="1" parent="WIyWlLk6GJQsqaUBKTNV-1">
          <mxGeometry x="130" y="360" width="120" height="40" as="geometry" />
        </mxCell>
        <mxCell id="K2qaakySadR7CfbKdTyK-27" value="" style="edgeStyle=orthogonalEdgeStyle;rounded=0;orthogonalLoop=1;jettySize=auto;html=1;" edge="1" parent="WIyWlLk6GJQsqaUBKTNV-1" source="K2qaakySadR7CfbKdTyK-24" target="K2qaakySadR7CfbKdTyK-26">
          <mxGeometry relative="1" as="geometry" />
        </mxCell>
        <mxCell id="K2qaakySadR7CfbKdTyK-28" value="true" style="edgeLabel;html=1;align=center;verticalAlign=middle;resizable=0;points=[];" vertex="1" connectable="0" parent="K2qaakySadR7CfbKdTyK-27">
          <mxGeometry x="-0.0303" relative="1" as="geometry">
            <mxPoint as="offset" />
          </mxGeometry>
        </mxCell>
        <mxCell id="K2qaakySadR7CfbKdTyK-30" style="edgeStyle=orthogonalEdgeStyle;rounded=0;orthogonalLoop=1;jettySize=auto;html=1;" edge="1" parent="WIyWlLk6GJQsqaUBKTNV-1" source="K2qaakySadR7CfbKdTyK-24" target="K2qaakySadR7CfbKdTyK-29">
          <mxGeometry relative="1" as="geometry" />
        </mxCell>
        <mxCell id="K2qaakySadR7CfbKdTyK-31" value="false" style="edgeLabel;html=1;align=center;verticalAlign=middle;resizable=0;points=[];" vertex="1" connectable="0" parent="K2qaakySadR7CfbKdTyK-30">
          <mxGeometry x="-0.4778" relative="1" as="geometry">
            <mxPoint as="offset" />
          </mxGeometry>
        </mxCell>
        <mxCell id="K2qaakySadR7CfbKdTyK-24" value="autoUpload?" style="rhombus;whiteSpace=wrap;html=1;" vertex="1" parent="WIyWlLk6GJQsqaUBKTNV-1">
          <mxGeometry x="140" y="440" width="100" height="100" as="geometry" />
        </mxCell>
        <mxCell id="K2qaakySadR7CfbKdTyK-33" value="" style="edgeStyle=orthogonalEdgeStyle;rounded=0;orthogonalLoop=1;jettySize=auto;html=1;" edge="1" parent="WIyWlLk6GJQsqaUBKTNV-1" source="K2qaakySadR7CfbKdTyK-26" target="K2qaakySadR7CfbKdTyK-32">
          <mxGeometry relative="1" as="geometry" />
        </mxCell>
        <mxCell id="K2qaakySadR7CfbKdTyK-26" value="postFile" style="whiteSpace=wrap;html=1;rounded=1;" vertex="1" parent="WIyWlLk6GJQsqaUBKTNV-1">
          <mxGeometry x="130" y="600" width="120" height="40" as="geometry" />
        </mxCell>
        <mxCell id="K2qaakySadR7CfbKdTyK-41" value="" style="edgeStyle=orthogonalEdgeStyle;rounded=0;orthogonalLoop=1;jettySize=auto;html=1;" edge="1" parent="WIyWlLk6GJQsqaUBKTNV-1" source="K2qaakySadR7CfbKdTyK-29" target="K2qaakySadR7CfbKdTyK-26">
          <mxGeometry relative="1" as="geometry" />
        </mxCell>
        <mxCell id="K2qaakySadR7CfbKdTyK-42" value="遍历 fileList 数组" style="edgeLabel;html=1;align=center;verticalAlign=middle;resizable=0;points=[];" vertex="1" connectable="0" parent="K2qaakySadR7CfbKdTyK-41">
          <mxGeometry x="0.0232" relative="1" as="geometry">
            <mxPoint as="offset" />
          </mxGeometry>
        </mxCell>
        <object label="uploadFiles" 描述="暴露出 uploadFiles 方法，循环 fileList 数组调用 postFile 函数" id="K2qaakySadR7CfbKdTyK-29">
          <mxCell style="whiteSpace=wrap;html=1;rounded=1;movable=1;resizable=1;rotatable=1;deletable=1;editable=1;locked=0;connectable=1;" vertex="1" parent="WIyWlLk6GJQsqaUBKTNV-1">
            <mxGeometry x="420" y="600" width="120" height="40" as="geometry" />
          </mxCell>
        </object>
        <mxCell id="K2qaakySadR7CfbKdTyK-35" value="" style="edgeStyle=orthogonalEdgeStyle;rounded=0;orthogonalLoop=1;jettySize=auto;html=1;" edge="1" parent="WIyWlLk6GJQsqaUBKTNV-1" source="K2qaakySadR7CfbKdTyK-32" target="K2qaakySadR7CfbKdTyK-34">
          <mxGeometry relative="1" as="geometry" />
        </mxCell>
        <mxCell id="K2qaakySadR7CfbKdTyK-36" value="true" style="edgeLabel;html=1;align=center;verticalAlign=middle;resizable=0;points=[];" vertex="1" connectable="0" parent="K2qaakySadR7CfbKdTyK-35">
          <mxGeometry x="0.0303" relative="1" as="geometry">
            <mxPoint as="offset" />
          </mxGeometry>
        </mxCell>
        <mxCell id="K2qaakySadR7CfbKdTyK-38" style="edgeStyle=orthogonalEdgeStyle;rounded=0;orthogonalLoop=1;jettySize=auto;html=1;entryX=0.5;entryY=0;entryDx=0;entryDy=0;" edge="1" parent="WIyWlLk6GJQsqaUBKTNV-1" source="K2qaakySadR7CfbKdTyK-32" target="K2qaakySadR7CfbKdTyK-37">
          <mxGeometry relative="1" as="geometry" />
        </mxCell>
        <mxCell id="K2qaakySadR7CfbKdTyK-39" value="false" style="edgeLabel;html=1;align=center;verticalAlign=middle;resizable=0;points=[];" vertex="1" connectable="0" parent="K2qaakySadR7CfbKdTyK-38">
          <mxGeometry x="-0.466" relative="1" as="geometry">
            <mxPoint as="offset" />
          </mxGeometry>
        </mxCell>
        <mxCell id="K2qaakySadR7CfbKdTyK-32" value="success?" style="rhombus;whiteSpace=wrap;html=1;" vertex="1" parent="WIyWlLk6GJQsqaUBKTNV-1">
          <mxGeometry x="140" y="680" width="100" height="100" as="geometry" />
        </mxCell>
        <mxCell id="K2qaakySadR7CfbKdTyK-34" value="status = success" style="whiteSpace=wrap;html=1;rounded=1;" vertex="1" parent="WIyWlLk6GJQsqaUBKTNV-1">
          <mxGeometry x="130" y="840" width="120" height="40" as="geometry" />
        </mxCell>
        <mxCell id="K2qaakySadR7CfbKdTyK-37" value="status = error" style="whiteSpace=wrap;html=1;rounded=1;" vertex="1" parent="WIyWlLk6GJQsqaUBKTNV-1">
          <mxGeometry x="420" y="840" width="120" height="40" as="geometry" />
        </mxCell>
      </root>
    </mxGraphModel>
  </diagram>
</mxfile>
